<svg id="Layer_1" xmlns="http://www.w3.org/2000/svg" xmlns:xlink="http://www.w3.org/1999/xlink" viewBox="0 0 388 240" width="40" height="24"><style>.st0{clip-path:url(#SVGID_2_);fill:#fff}</style><defs><path id="SVGID_1_" d="M0 0h388v240H0z"/></defs><clipPath id="SVGID_2_"><use xlink:href="#SVGID_1_" overflow="visible"/></clipPath><path class="st0" d="M388 204.8l-40.4-40.4c-11.4 11.4-27.1 18.4-44.4 18.4-24.5 0-45.7-13.6-56.1-33.7-4.7 20.4-14.6 39.6-28.9 56 21.7 21.6 51.8 34.9 85 34.9 33.1 0 63.1-13.4 84.8-35.2"/><path class="st0" d="M120 240c33.1 0 63.1-13.5 84.8-35.2 2.3-2.3 4.5-4.7 6.6-7.1 17.9-20.8 29-47.2 29-76.8 0-34.7 28.1-63.8 62.9-63.8 17.4 0 33.1 7 44.4 18.4L388 35.2C366.3 13.5 336.3 0 303.2 0c-66.2 0-120 54.8-120 120.9 0 17.4-7.4 32.2-18.8 43.5-11.4 11.4-27.1 18.4-44.4 18.4-34.7 0-62.9-27.2-62.9-61.9S85.2 57.1 120 57.1V0C53.8 0 0 54.8 0 120.9 0 187.1 53.8 240 120 240"/></svg>